<?xml version="1.0" encoding="UTF-8" standalone="no"?>
<!DOCTYPE svg PUBLIC "-//W3C//DTD SVG 1.1//EN" "http://www.w3.org/Graphics/SVG/1.1/DTD/svg11.dtd">
<svg width="100%" height="100%" viewBox="0 0 692 709" version="1.1" xmlns="http://www.w3.org/2000/svg" xmlns:xlink="http://www.w3.org/1999/xlink" xml:space="preserve" xmlns:serif="http://www.serif.com/" style="fill-rule:evenodd;clip-rule:evenodd;stroke-linejoin:round;stroke-miterlimit:2;">
    <g transform="matrix(4.16667,0,0,4.16667,70.6992,65.0921)">
        <g id="Layer-1" serif:id="Layer 1">
            <path d="M0,136.521L1.363,125.696L127.792,125.696L129.156,136.521L0,136.521ZM13.572,28.758L40.077,28.758L40.077,51.458C40.077,53.521 41.75,55.195 43.813,55.195C45.877,55.195 47.55,53.521 47.55,51.458L47.55,28.758L83.348,28.758L83.348,51.458C83.348,53.521 85.021,55.195 87.084,55.195C89.148,55.195 90.821,53.521 90.821,51.458L90.821,28.758L115.584,28.758L126.852,118.223L2.305,118.223L13.572,28.758ZM47.55,17.755C47.55,7.886 55.58,-0.144 65.449,-0.144C75.319,-0.144 83.348,7.886 83.348,17.755L83.348,21.142L47.55,21.142L47.55,17.755ZM136.713,135.569L123.141,27.807C122.662,23.998 119.423,21.142 115.584,21.142L90.821,21.142L90.821,17.755C90.821,3.765 79.439,-7.617 65.449,-7.617C51.458,-7.617 40.077,3.765 40.077,17.755L40.077,21.142L13.572,21.142C9.733,21.142 6.495,23.998 6.015,27.807L-7.557,135.569C-7.83,137.738 -7.158,139.92 -5.712,141.56C-4.267,143.199 -2.186,144.138 0,144.138L129.156,144.138C131.342,144.138 133.422,143.199 134.869,141.56C136.314,139.92 136.986,137.738 136.713,135.569" style="fill:rgb(3,4,5);fill-rule:nonzero;"/>
        </g>
    </g>
</svg>
