<svg xmlns="http://www.w3.org/2000/svg" viewBox="0 0 155.83 43.1"><defs><style>.cls-1{fill:#666;}.cls-2{fill:#fff;}.cls-3{fill:#f07122;}</style></defs><g id="Layer_2" data-name="Layer 2"><g id="Layer_1-2" data-name="Layer 1"><path class="cls-1" d="M21.55,43.1A21.55,21.55,0,1,0,0,21.55,21.55,21.55,0,0,0,21.55,43.1"/><path class="cls-2" d="M15.28,37.81l.14-3,0-.59h.13a10.4,10.4,0,0,0,2.77-.43,9.88,9.88,0,0,0,4.24-2.48l8.74-8.74a4.46,4.46,0,0,0,1.18-3.1,4.73,4.73,0,0,0-1.41-3.4,4.68,4.68,0,0,0-3.29-1.32A4.47,4.47,0,0,0,24.65,16a5.29,5.29,0,0,0-1.2,1.7,4.69,4.69,0,0,0-.34,1.8A8.33,8.33,0,0,0,23.28,21a13.47,13.47,0,0,1,.34,2.74A8.48,8.48,0,0,1,21,29.86a8.23,8.23,0,0,1-5.69,2.19,8.12,8.12,0,0,1-5.79-2.39A8.21,8.21,0,0,1,7,23.81a8.84,8.84,0,0,1,.67-3.32A7.34,7.34,0,0,1,9.17,18.1L18,9.27a13.69,13.69,0,0,1,6.24-3.48,14,14,0,0,1,3.46-.51h.11l-.11,1.94V8.9a10.76,10.76,0,0,0-2.54.39,10.07,10.07,0,0,0-4.6,2.54c-3,3-8.56,8.55-8.84,8.84a3.78,3.78,0,0,0-.74,1.2,5.09,5.09,0,0,0-.4,1.94A4.51,4.51,0,0,0,12,27.1a4.44,4.44,0,0,0,3.22,1.33,4.66,4.66,0,0,0,3.13-1.13A4.76,4.76,0,0,0,20,23.75a10.66,10.66,0,0,0-.28-2.05,12.36,12.36,0,0,1-.23-2.25,8.28,8.28,0,0,1,.62-3.2,8.83,8.83,0,0,1,2-2.86,8.09,8.09,0,0,1,5.71-2.28,8.24,8.24,0,0,1,5.85,2.38,8.42,8.42,0,0,1,2.48,6,8.05,8.05,0,0,1-2.25,5.66C32,27,27,32,25.14,33.85a13.4,13.4,0,0,1-5.78,3.39,13.81,13.81,0,0,1-3.79.58h-.29"/><path class="cls-1" d="M145.64,21a5.71,5.71,0,0,1,1.14-3.36,3.35,3.35,0,0,1,2.68-1.16,3.44,3.44,0,0,1,1.57.33,2.91,2.91,0,0,1,1.08.92,4.16,4.16,0,0,1,.62,1.43,8.11,8.11,0,0,1,.2,1.84Zm10.19.52a9.55,9.55,0,0,0-.43-3,6.81,6.81,0,0,0-1.26-2.3,5.49,5.49,0,0,0-2-1.48,6.38,6.38,0,0,0-2.64-.53,6.5,6.5,0,0,0-2.74.58,6,6,0,0,0-2.12,1.68,7.86,7.86,0,0,0-1.38,2.69,12.13,12.13,0,0,0-.49,3.61,11,11,0,0,0,.53,3.55,7.26,7.26,0,0,0,1.51,2.61,6.27,6.27,0,0,0,2.32,1.6,7.75,7.75,0,0,0,3,.55c.5,0,1,0,1.4-.06a9.73,9.73,0,0,0,1.24-.19,9.24,9.24,0,0,0,1.17-.34c.38-.14.77-.3,1.17-.49v-2.4q-.59.27-1.14.48a11.33,11.33,0,0,1-1.17.36,11.87,11.87,0,0,1-1.24.21,12.15,12.15,0,0,1-1.4.08,4.17,4.17,0,0,1-3.38-1.35,6.81,6.81,0,0,1-1.2-4.21h10.25Z"/><path class="cls-1" d="M138.27,23.3a12.92,12.92,0,0,1-.26,2.43,4.91,4.91,0,0,1-.72,1.75,2.88,2.88,0,0,1-1.26,1,4.65,4.65,0,0,1-1.9.34,3.24,3.24,0,0,1-3-1.51,9,9,0,0,1-.94-4.62,9.3,9.3,0,0,1,.94-4.64,3.17,3.17,0,0,1,2.94-1.62,4.39,4.39,0,0,1,2,.41,3.08,3.08,0,0,1,1.28,1.2,5.72,5.72,0,0,1,.69,2,16.11,16.11,0,0,1,.2,2.66Zm0-15.57v6.46c0,.16,0,.38,0,.65s0,.54,0,.79.06.63.09,1h-.17a6,6,0,0,0-.78-.91,4.82,4.82,0,0,0-1-.75,5.44,5.44,0,0,0-1.28-.52,6.07,6.07,0,0,0-1.59-.2,5.68,5.68,0,0,0-2.52.55,5.36,5.36,0,0,0-2,1.6A8.05,8.05,0,0,0,127.87,19a13.82,13.82,0,0,0-.44,3.67,13.64,13.64,0,0,0,.44,3.64A7.9,7.9,0,0,0,129.13,29a5.43,5.43,0,0,0,2,1.59,6,6,0,0,0,2.52.53,6.05,6.05,0,0,0,1.6-.19,5.29,5.29,0,0,0,1.28-.53,5,5,0,0,0,1-.8,6.82,6.82,0,0,0,.77-.95h.11l.4,2.18H141V7.73Z"/><path class="cls-1" d="M113.85,24.3a6,6,0,0,1-.32,2,4,4,0,0,1-.88,1.44,3.61,3.61,0,0,1-1.34.85,4.76,4.76,0,0,1-1.67.28,2.77,2.77,0,0,1-1.89-.63,2.57,2.57,0,0,1-.72-2,3.61,3.61,0,0,1,.24-1.35,2.41,2.41,0,0,1,.78-1,3.7,3.7,0,0,1,1.44-.66,10.76,10.76,0,0,1,2.24-.3l2.12-.1Zm-14.54-2a2.9,2.9,0,0,1-2.24.83,3,3,0,0,1-2.27-.83,3.57,3.57,0,0,1-.8-2.54,4,4,0,0,1,.79-2.7A2.84,2.84,0,0,1,97,16.17,2.87,2.87,0,0,1,99.3,17a3.88,3.88,0,0,1,.78,2.68,3.68,3.68,0,0,1-.77,2.58m-4.57,8.36a5.25,5.25,0,0,1,1.08-.12h2.61a12.43,12.43,0,0,1,1.63.09,2.93,2.93,0,0,1,1.08.33,1.38,1.38,0,0,1,.58.68,2.86,2.86,0,0,1,.18,1.11,2.74,2.74,0,0,1-1.37,2.45A8,8,0,0,1,96.4,36a6.55,6.55,0,0,1-1.79-.2,3.16,3.16,0,0,1-1.15-.54,2,2,0,0,1-.63-.81,2.7,2.7,0,0,1-.19-1,3.15,3.15,0,0,1,.3-1.47,2.53,2.53,0,0,1,.77-.9,2.71,2.71,0,0,1,1-.44m21.44-13.48a4.07,4.07,0,0,0-1.08-1.68,4.35,4.35,0,0,0-1.82-1c-.73-.2-7.39,0-8.66,0a56,56,0,0,1-6-.23,14.26,14.26,0,0,0-1.43-.09,7.41,7.41,0,0,0-2.52.39,4.85,4.85,0,0,0-1.81,1.11,4.7,4.7,0,0,0-1.1,1.76,7,7,0,0,0-.37,2.36,5.55,5.55,0,0,0,.2,1.47,5.28,5.28,0,0,0,.56,1.31A4.83,4.83,0,0,0,93,23.69a4.18,4.18,0,0,0,1.17.73,5.2,5.2,0,0,0-1.5,1.28,2.6,2.6,0,0,0-.47,1.57,2.44,2.44,0,0,0,.4,1.39,2.3,2.3,0,0,0,1,.89,6.87,6.87,0,0,0-1.34.47,4.21,4.21,0,0,0-1.14.81A3.62,3.62,0,0,0,90.38,32a3.81,3.81,0,0,0-.29,1.56,4.44,4.44,0,0,0,.39,1.89,3.68,3.68,0,0,0,1.18,1.43,5.53,5.53,0,0,0,2,.91,11.31,11.31,0,0,0,2.77.31A14.52,14.52,0,0,0,100,37.7a7.17,7.17,0,0,0,2.51-1.1A4.53,4.53,0,0,0,104,34.84a5.5,5.5,0,0,0,.48-2.34,5.37,5.37,0,0,0-.27-1.71,3.43,3.43,0,0,0-.86-1.4,4.18,4.18,0,0,0-1.55-.94,6.65,6.65,0,0,0-2.33-.35H96.83a7.85,7.85,0,0,1-.87-.05,2.72,2.72,0,0,1-.72-.17,1,1,0,0,1-.66-1,1.75,1.75,0,0,1,.12-.65,2.16,2.16,0,0,1,.33-.53,3,3,0,0,1,.44-.43c.17-.12.33-.23.5-.33a2.58,2.58,0,0,0,.53.05h.66a6.8,6.8,0,0,0,2.41-.39,5,5,0,0,0,1.74-1.09,4.63,4.63,0,0,0,1.06-1.65,6.15,6.15,0,0,0,.34-2.09,5.5,5.5,0,0,0-.28-1.83,4.3,4.3,0,0,0-.69-1.32l0-.09,2.89,0s7,0,7.45.09a2.28,2.28,0,0,1,1,.59,2.61,2.61,0,0,1,.62,1.07,5.25,5.25,0,0,1,.22,1.66v1l-2.73.11a9.1,9.1,0,0,0-5.21,1.42,4.41,4.41,0,0,0-1.71,3.73,5.85,5.85,0,0,0,.36,2.16,4,4,0,0,0,1,1.51,4,4,0,0,0,1.49.89,5.66,5.66,0,0,0,1.88.29,8.07,8.07,0,0,0,1.65-.15,4.81,4.81,0,0,0,1.29-.46,4.43,4.43,0,0,0,1.06-.79,8.28,8.28,0,0,0,1-1.15H114l.55,2.26h1.94V19.65a7.84,7.84,0,0,0-.35-2.48"/><path class="cls-3" d="M60.2,14.11a4.36,4.36,0,0,0-1.2.52,4.09,4.09,0,0,0-.92.78,6.68,6.68,0,0,0-.72,1h-.17l.09-1.15c0-.33,0-.68,0-1.06s0-.74,0-1.06V7.73H52.84V30.8H56.3L57.05,29h.31a8.59,8.59,0,0,0,.69.8,4.71,4.71,0,0,0,.89.67,4.2,4.2,0,0,0,1.14.47,5.56,5.56,0,0,0,1.48.18A5.19,5.19,0,0,0,64,30.54a5,5,0,0,0,1.85-1.63A8.14,8.14,0,0,0,67,26.22a14.88,14.88,0,0,0,.42-3.74A14.74,14.74,0,0,0,67,18.77a8.26,8.26,0,0,0-1.18-2.68,4.87,4.87,0,0,0-4.13-2.18,5.19,5.19,0,0,0-1.48.2m2,4.64a8.32,8.32,0,0,1,.63,3.67,8.74,8.74,0,0,1-.63,3.73,2.08,2.08,0,0,1-2,1.28,2.63,2.63,0,0,1-1.34-.32,2.39,2.39,0,0,1-.87-1,4.87,4.87,0,0,1-.46-1.56,13.72,13.72,0,0,1-.15-2.14V22A13.25,13.25,0,0,1,57.54,20,4,4,0,0,1,58,18.63a2.12,2.12,0,0,1,.85-.83,2.78,2.78,0,0,1,1.28-.27,2.11,2.11,0,0,1,2,1.22M68.87,11a1.68,1.68,0,0,0,.53.69,1.88,1.88,0,0,0,.78.37,4.2,4.2,0,0,0,1.91,0,1.9,1.9,0,0,0,.77-.37A1.79,1.79,0,0,0,73.4,11a2.49,2.49,0,0,0,.2-1.05,2.54,2.54,0,0,0-.2-1.06,1.83,1.83,0,0,0-.54-.68,2,2,0,0,0-.77-.36,4.2,4.2,0,0,0-1.91,0,2,2,0,0,0-.78.36,1.72,1.72,0,0,0-.53.68,2.54,2.54,0,0,0-.19,1.06A2.5,2.5,0,0,0,68.87,11m4.52,3.23H68.87V30.8h4.52Zm6.77,4.56a2.39,2.39,0,0,1,2.24-1.22,2.44,2.44,0,0,1,2.29,1.22,7.77,7.77,0,0,1,.69,3.7,7.94,7.94,0,0,1-.69,3.72,2.66,2.66,0,0,1-4.52,0,7.82,7.82,0,0,1-.7-3.73,7.77,7.77,0,0,1,.69-3.7m9.27,0a7.88,7.88,0,0,0-1.56-2.69,6.46,6.46,0,0,0-2.38-1.65,7.86,7.86,0,0,0-3-.57,8.42,8.42,0,0,0-3.18.57,6.3,6.3,0,0,0-2.4,1.65,7.48,7.48,0,0,0-1.51,2.69,11.75,11.75,0,0,0-.53,3.66,11,11,0,0,0,.57,3.68A7.81,7.81,0,0,0,77,28.85a6.51,6.51,0,0,0,2.38,1.67,7.85,7.85,0,0,0,3,.57,8.42,8.42,0,0,0,3.18-.57A6.3,6.3,0,0,0,88,28.85a7.57,7.57,0,0,0,1.51-2.69A11.85,11.85,0,0,0,90,22.48a10.91,10.91,0,0,0-.56-3.66"/><path class="cls-1" d="M127.43,14.29l-.33,0c-.35,0-.67,0-1,0a3.83,3.83,0,0,0-1.48.28,4.29,4.29,0,0,0-1.18.72,6,6,0,0,0-1,1,12.9,12.9,0,0,0-.79,1.23h-.12l-.33-3H119.1V30.8h2.7V22a7.53,7.53,0,0,1,.3-2.19,5.18,5.18,0,0,1,.86-1.69,3.77,3.77,0,0,1,3-1.46,6,6,0,0,1,.82.06l.62.08Z"/></g></g></svg>