<svg xmlns="http://www.w3.org/2000/svg" viewBox="0 0 45.76 12.66"><defs><style>.cls-1{fill:#666;}.cls-2{fill:#fff;}.cls-3{fill:#f1701a;}</style></defs><g id="Layer_2" data-name="Layer 2"><g id="Layer_1-2" data-name="Layer 1"><path class="cls-1" d="M6.33,12.66A6.33,6.33,0,1,0,0,6.33a6.34,6.34,0,0,0,6.33,6.33"/><path class="cls-2" d="M4.49,11.1l0-.88V10h0a3.18,3.18,0,0,0,.82-.12,3,3,0,0,0,1.24-.73L9.2,6.62a1.34,1.34,0,0,0,.35-.91,1.46,1.46,0,0,0-.42-1,1.39,1.39,0,0,0-1-.38,1.31,1.31,0,0,0-.92.35,1.58,1.58,0,0,0-.35.5,1.32,1.32,0,0,0-.1.53,2,2,0,0,0,0,.46,4.17,4.17,0,0,1,.1.8,2.48,2.48,0,0,1-.79,1.8,2.37,2.37,0,0,1-1.67.64,2.35,2.35,0,0,1-1.7-.7A2.4,2.4,0,0,1,2.05,7a2.47,2.47,0,0,1,.2-1,2,2,0,0,1,.44-.7l2.6-2.6a4,4,0,0,1,1.83-1,4,4,0,0,1,1-.15h0l0,.57v.49a3.09,3.09,0,0,0-.75.12A3,3,0,0,0,6,3.47L3.45,6.07a1.11,1.11,0,0,0-.22.35A1.53,1.53,0,0,0,3.11,7a1.34,1.34,0,0,0,.43,1,1.29,1.29,0,0,0,.94.39A1.42,1.42,0,0,0,5.4,8a1.36,1.36,0,0,0,.47-1,3,3,0,0,0-.08-.6,3.68,3.68,0,0,1-.06-.66,2.25,2.25,0,0,1,.18-.94,2.54,2.54,0,0,1,.58-.84,2.35,2.35,0,0,1,1.67-.67A2.42,2.42,0,0,1,9.88,4a2.45,2.45,0,0,1,.73,1.75A2.34,2.34,0,0,1,10,7.37L7.38,9.94a4,4,0,0,1-1.69,1,4.17,4.17,0,0,1-1.12.17H4.49"/><path class="cls-2" d="M45.76,6.31a2.69,2.69,0,0,0-.13-.87,1.8,1.8,0,0,0-.36-.67,1.72,1.72,0,0,0-.59-.44,1.89,1.89,0,0,0-.77-.15,1.8,1.8,0,0,0-1.43.66,2.35,2.35,0,0,0-.4.79,3.43,3.43,0,0,0-.15,1.06,3,3,0,0,0,.16,1,2.07,2.07,0,0,0,.44.77,1.89,1.89,0,0,0,.68.47,2.3,2.3,0,0,0,.88.16,2.68,2.68,0,0,0,.41,0l.36,0,.35-.1.34-.15v-.7l-.34.14a1.91,1.91,0,0,1-.34.1l-.36.07-.41,0a1.2,1.2,0,0,1-1-.4,1.94,1.94,0,0,1-.36-1.23h3Zm-3-.15a1.65,1.65,0,0,1,.34-1,1,1,0,0,1,.78-.34,1,1,0,0,1,.46.1.76.76,0,0,1,.32.27,1.33,1.33,0,0,1,.18.42,2.29,2.29,0,0,1,.06.54Z"/><path class="cls-2" d="M40.6,2.27v1.9s0,.11,0,.19,0,.16,0,.23l0,.28H40.6a1.32,1.32,0,0,0-.22-.26,1.29,1.29,0,0,0-.3-.22,1.45,1.45,0,0,0-.38-.16,2.16,2.16,0,0,0-.46-.05,1.64,1.64,0,0,0-.74.16,1.46,1.46,0,0,0-.58.47,2.35,2.35,0,0,0-.37.78,4.18,4.18,0,0,0-.13,1.07,4.18,4.18,0,0,0,.13,1.07,2.35,2.35,0,0,0,.37.78A1.52,1.52,0,0,0,38.5,9a1.64,1.64,0,0,0,.74.16,1.73,1.73,0,0,0,.47-.06,1.37,1.37,0,0,0,.37-.15,1.44,1.44,0,0,0,.3-.24,1.18,1.18,0,0,0,.22-.28h0l.12.64h.64V2.27Zm0,4.57a3.82,3.82,0,0,1-.07.72,1.7,1.7,0,0,1-.21.51.83.83,0,0,1-.37.3,1.34,1.34,0,0,1-.56.1A.93.93,0,0,1,38.52,8a2.58,2.58,0,0,1-.28-1.36,2.68,2.68,0,0,1,.28-1.36.92.92,0,0,1,.86-.48A1.29,1.29,0,0,1,40,5a.94.94,0,0,1,.38.36,1.66,1.66,0,0,1,.2.57,6,6,0,0,1,.05.78Z"/><path class="cls-2" d="M34.12,5a1.2,1.2,0,0,0-.32-.49,1.28,1.28,0,0,0-.53-.28c-.22-.06-2.17,0-2.55,0A15.43,15.43,0,0,1,29,4.2l-.42,0a2.35,2.35,0,0,0-.74.11,1.49,1.49,0,0,0-.53.33,1.31,1.31,0,0,0-.32.52,2.08,2.08,0,0,0-.11.69,1.54,1.54,0,0,0,.06.43,1.45,1.45,0,0,0,.16.38,1.35,1.35,0,0,0,.26.32,1.25,1.25,0,0,0,.35.21,1.42,1.42,0,0,0-.44.38.72.72,0,0,0-.14.46.73.73,0,0,0,.12.41.64.64,0,0,0,.3.26,1.9,1.9,0,0,0-.4.14,1.3,1.3,0,0,0-.33.23,1,1,0,0,0-.31.8,1.27,1.27,0,0,0,.11.56,1.16,1.16,0,0,0,.35.42,1.64,1.64,0,0,0,.58.26,2.8,2.8,0,0,0,.81.1,4.1,4.1,0,0,0,1.05-.12,2.1,2.1,0,0,0,.74-.32,1.27,1.27,0,0,0,.43-.52,1.52,1.52,0,0,0,.14-.69,1.42,1.42,0,0,0-.08-.5,1,1,0,0,0-.25-.41,1.28,1.28,0,0,0-.45-.28,2.29,2.29,0,0,0-.69-.1h-1L28,8.19a.4.4,0,0,1-.14-.11.31.31,0,0,1-.06-.19.65.65,0,0,1,0-.2.78.78,0,0,1,.1-.15A.8.8,0,0,1,28,7.41a1.1,1.1,0,0,1,.14-.09h.35a2.16,2.16,0,0,0,.71-.11,1.64,1.64,0,0,0,.51-.32,1.32,1.32,0,0,0,.31-.49,1.7,1.7,0,0,0,.1-.61,1.53,1.53,0,0,0-.08-.54,1.43,1.43,0,0,0-.2-.39l0,0h.85s2.07,0,2.19,0a.64.64,0,0,1,.3.17.73.73,0,0,1,.18.31,1.77,1.77,0,0,1,.06.49v.3l-.8,0a2.79,2.79,0,0,0-1.53.42,1.31,1.31,0,0,0-.5,1.1,1.74,1.74,0,0,0,.1.63,1.29,1.29,0,0,0,.29.45,1.39,1.39,0,0,0,.44.26,1.92,1.92,0,0,0,.55.08,2.37,2.37,0,0,0,.49,0A1.35,1.35,0,0,0,32.85,9a1.44,1.44,0,0,0,.32-.23,3.62,3.62,0,0,0,.29-.34h0l.16.66h.57V5.77a2.26,2.26,0,0,0-.1-.73m-6.3,4,.32,0h.77a3.32,3.32,0,0,1,.47,0,.8.8,0,0,1,.32.1.37.37,0,0,1,.17.2.74.74,0,0,1,.05.32.78.78,0,0,1-.4.72,2.3,2.3,0,0,1-1.21.25,2.07,2.07,0,0,1-.53-.05,1,1,0,0,1-.33-.16.61.61,0,0,1-.19-.24.8.8,0,0,1-.06-.3,1,1,0,0,1,.09-.44.73.73,0,0,1,.23-.26.81.81,0,0,1,.3-.13m1.34-2.45a.82.82,0,0,1-.65.24.9.9,0,0,1-.67-.24,1.06,1.06,0,0,1-.24-.75A1.13,1.13,0,0,1,27.84,5a.8.8,0,0,1,.66-.26.83.83,0,0,1,.66.25,1.16,1.16,0,0,1,.23.79,1.1,1.1,0,0,1-.23.76m4.27.59a1.8,1.8,0,0,1-.09.6,1.11,1.11,0,0,1-.26.42,1.14,1.14,0,0,1-.39.25,1.57,1.57,0,0,1-.49.08.79.79,0,0,1-.56-.19.73.73,0,0,1-.21-.58,1,1,0,0,1,.07-.4.68.68,0,0,1,.23-.3,1.37,1.37,0,0,1,.42-.2,3.72,3.72,0,0,1,.66-.08l.62,0Z"/><path class="cls-3" d="M26.26,5.53a2.11,2.11,0,0,0-.46-.79,1.82,1.82,0,0,0-.7-.49,2.26,2.26,0,0,0-.88-.16,2.54,2.54,0,0,0-.94.16,1.82,1.82,0,0,0-.7.49,2.24,2.24,0,0,0-.45.79A3.5,3.5,0,0,0,22,6.6a3.23,3.23,0,0,0,.16,1.08,2.53,2.53,0,0,0,.46.79,1.89,1.89,0,0,0,.7.49,2.35,2.35,0,0,0,.89.17A2.45,2.45,0,0,0,25.12,9a1.78,1.78,0,0,0,.71-.49,2.16,2.16,0,0,0,.44-.79,3.23,3.23,0,0,0,.16-1.08,3.2,3.2,0,0,0-.17-1.07m-2.72,0a.7.7,0,0,1,.66-.36.71.71,0,0,1,.67.36,2.21,2.21,0,0,1,.2,1.08,2.25,2.25,0,0,1-.2,1.09.7.7,0,0,1-.66.37.71.71,0,0,1-.67-.36,2.42,2.42,0,0,1-.2-1.1,2.33,2.33,0,0,1,.2-1.08m-2-1.34H20.22V9h1.33Zm-1.33-.95a.53.53,0,0,0,.16.2.55.55,0,0,0,.23.11,1.32,1.32,0,0,0,.56,0,.61.61,0,0,0,.23-.11.5.5,0,0,0,.15-.2.75.75,0,0,0,.06-.31.68.68,0,0,0-.06-.31.5.5,0,0,0-.15-.2.61.61,0,0,0-.23-.11,1.32,1.32,0,0,0-.56,0,.55.55,0,0,0-.23.11.53.53,0,0,0-.16.2.87.87,0,0,0,0,.31,1,1,0,0,0,0,.31m-2,2.28a2.33,2.33,0,0,1,.19,1.07,2.47,2.47,0,0,1-.19,1.1.6.6,0,0,1-.58.38.81.81,0,0,1-.39-.1A.71.71,0,0,1,17,7.68a1.39,1.39,0,0,1-.13-.46,3.92,3.92,0,0,1,0-.63V6.45a3.1,3.1,0,0,1,0-.57A1.1,1.1,0,0,1,17,5.47a.53.53,0,0,1,.25-.24.72.72,0,0,1,.37-.08.62.62,0,0,1,.59.36m-.57-1.37a1.25,1.25,0,0,0-.35.16.87.87,0,0,0-.27.23,1.46,1.46,0,0,0-.21.28h-.06l0-.34c0-.1,0-.2,0-.31s0-.22,0-.31V2.27H15.52V9h1l.22-.53h.1a1.43,1.43,0,0,0,.2.23,1.06,1.06,0,0,0,.26.2,1.64,1.64,0,0,0,.33.14,2,2,0,0,0,.44.05,1.5,1.5,0,0,0,.7-.16,1.54,1.54,0,0,0,.54-.48,2.3,2.3,0,0,0,.35-.79,4,4,0,0,0,.13-1.1,4,4,0,0,0-.13-1.09,2.33,2.33,0,0,0-.34-.78,1.41,1.41,0,0,0-.53-.48,1.67,1.67,0,0,0-1.12-.11"/><path class="cls-2" d="M37.42,4.2H37a1,1,0,0,0-.43.08,1.13,1.13,0,0,0-.35.21,2.12,2.12,0,0,0-.28.31,3.17,3.17,0,0,0-.23.36h0l-.1-.88H35V9h.79V6.47a2.11,2.11,0,0,1,.09-.64,1.47,1.47,0,0,1,.25-.5A1.2,1.2,0,0,1,36.5,5,1.18,1.18,0,0,1,37,4.9l.24,0,.18,0Z"/></g></g></svg>