<svg id="Layer_1" data-name="Layer 1" xmlns="http://www.w3.org/2000/svg" viewBox="0 0 319.99 319.99"><defs><style>.cls-1{fill:#dfdfdf;}</style></defs><title>times-light</title><path class="cls-1" d="M193.94,256,296.5,153.44l21.15-21.15a8,8,0,0,0,0-11.31L295,98.35a8,8,0,0,0-11.31,0L160,222.06,36.29,98.34a8,8,0,0,0-11.31,0L2.34,121a8,8,0,0,0,0,11.31L126.06,256,2.34,379.71a8,8,0,0,0,0,11.31L25,413.65a8,8,0,0,0,11.31,0L160,289.94,262.56,392.5l21.15,21.15a8,8,0,0,0,11.31,0L317.65,391a8,8,0,0,0,0-11.31Z" transform="translate(0 -96)"/></svg>